<?xml version="1.0" encoding="utf-8"?>
<!-- Generator: Adobe Illustrator 25.0.1, SVG Export Plug-In . SVG Version: 6.00 Build 0)  -->
<svg version="1.1" xmlns="http://www.w3.org/2000/svg" xmlns:xlink="http://www.w3.org/1999/xlink" x="0px" y="0px"
	 viewBox="0 0 751.5 144.8" style="enable-background:new 0 0 751.5 144.8;" xml:space="preserve">
<style type="text/css">
	.st0{display:none;}
	.st1{font-family:'Nunito-Black';}
	.st2{font-size:140px;}
	.st3{fill:#0D3847;}
	.st4{fill:#EC6729;}
	.st5{clip-path:url(#SVGID_2_);fill:#0A3847;}
</style>
<g id="Pixeltijgers">
	<text transform="matrix(1 0 0 1 -7.4892 113.3249)" class="st0 st1 st2">Pixeltijgers</text>
</g>
<g id="Pixel">
	<path class="st3" d="M3.4,110.4C1.1,108.1,0,105,0,101.1V26.2c0-3.8,1-6.8,3.1-8.8c2.1-2.1,5-3.1,8.8-3.1h35.8
		c10.9,0,19.4,2.8,25.5,8.3c6.1,5.6,9.1,13.3,9.1,23.2c0,9.8-3.1,17.5-9.2,23.1c-6.1,5.6-14.6,8.4-25.4,8.4h-22v23.8
		c0,3.9-1.2,7-3.5,9.3c-2.3,2.3-5.5,3.4-9.5,3.4C8.8,113.8,5.7,112.7,3.4,110.4z M54.8,55c2.3-2,3.4-5,3.4-9.1
		c0-8.1-4.7-12.2-14-12.2H25.8V58h18.5C49,58,52.5,57,54.8,55z"/>
	<path class="st3" d="M95.5,29.6c-2.5-2.2-3.7-5.1-3.7-8.8c0-3.6,1.2-6.5,3.7-8.7C98,10,101.4,9,105.6,9c4.1,0,7.4,1.1,9.9,3.2
		c2.5,2.1,3.8,5,3.8,8.7c0,3.6-1.2,6.6-3.7,8.8c-2.5,2.2-5.8,3.3-10,3.3C101.4,32.9,98,31.8,95.5,29.6z M96.7,111
		c-2.4-1.9-3.6-4.8-3.6-8.6V54.2c0-3.8,1.2-6.7,3.6-8.6c2.4-1.9,5.3-2.9,8.9-2.9c3.5,0,6.5,1,8.9,2.9c2.4,1.9,3.6,4.8,3.6,8.6v48.2
		c0,3.8-1.2,6.7-3.6,8.6c-2.4,1.9-5.3,2.9-8.9,2.9C102,113.8,99,112.9,96.7,111z"/>
	<path class="st3" d="M199.4,102.9c0,2.9-1.1,5.5-3.4,7.7c-2.2,2.2-4.9,3.4-7.8,3.4c-3.1,0-5.8-1.3-8.3-3.8l-16.4-17.1l-16.2,17.1
		c-2.4,2.5-5.2,3.8-8.3,3.8c-3,0-5.6-1.1-7.8-3.4c-2.2-2.2-3.4-4.8-3.4-7.7c0-3,1.2-5.6,3.5-8l17.4-17.4l-16-15.7
		c-2.3-2.3-3.5-5-3.5-8c0-3,1.1-5.6,3.3-7.8c2.2-2.2,4.8-3.4,7.8-3.4c3.2,0,5.9,1.3,8.3,3.9l15,15.3l15.1-15.3
		c2.4-2.5,5.2-3.8,8.3-3.8c3,0,5.6,1.1,7.8,3.3c2.2,2.2,3.3,4.7,3.3,7.6c0,3-1.2,5.7-3.5,8.1l-16,15.7l17.4,17.4
		C198.2,97.3,199.4,99.9,199.4,102.9z"/>
	<path class="st3" d="M269.1,93.4c1.4,1.7,2,3.9,2,6.6c0,3.7-1.8,6.6-5.5,8.5c-3.2,1.6-6.9,2.9-11.3,4s-8.3,1.6-12,1.6
		c-7.7,0-14.3-1.4-20-4.3c-5.7-2.9-10.1-7-13.2-12.5c-3.1-5.4-4.6-11.8-4.6-19c0-6.9,1.5-13.1,4.4-18.5c2.9-5.5,7-9.7,12.3-12.7
		c5.3-3,11.2-4.6,17.9-4.6c6.4,0,12.1,1.4,16.9,4.2c4.9,2.8,8.6,6.8,11.3,11.9c2.7,5.1,4,11.2,4,18.1c0,2.1-0.5,3.8-1.5,5
		c-1,1.2-2.4,1.8-4.3,1.8h-37c0.7,4.5,2.1,7.7,4.3,9.7c2.2,2,5.6,2.9,9.9,2.9c2.3,0,4.5-0.3,6.4-0.8c2-0.5,4.2-1.2,6.6-2.2
		c1.4-0.6,2.8-1,4.1-1.5c1.4-0.4,2.6-0.6,3.7-0.6C266,90.9,267.8,91.7,269.1,93.4z M232.1,62.4c-2,2.1-3.1,5.2-3.5,9.2h22
		c-0.6-8.2-4.1-12.3-10.6-12.3C236.7,59.2,234.1,60.3,232.1,62.4z"/>
	<path class="st3" d="M286.4,111c-2.4-1.9-3.6-4.8-3.6-8.6V25.2c0-3.8,1.2-6.7,3.6-8.7s5.3-2.9,8.9-2.9c3.5,0,6.5,1,8.9,2.9
		s3.6,4.9,3.6,8.7v77.1c0,3.8-1.2,6.7-3.6,8.6c-2.4,1.9-5.3,2.9-8.9,2.9C291.7,113.8,288.7,112.9,286.4,111z"/>
</g>
<g id="Tijgers_1_">
	<path class="st4" d="M377.3,104c0,3.3-1.3,5.7-3.8,7.3c-2.5,1.6-6.1,2.2-10.8,2l-3.9-0.3c-8.4-0.7-14.8-3.2-19.1-7.6
		c-4.3-4.4-6.5-10.6-6.5-18.5V62h-4.1c-7.5,0-11.2-3.1-11.2-9.2c0-6.1,3.7-9.1,11.2-9.1h4.1v-9.1c0-3.5,1.1-6.4,3.4-8.5
		c2.2-2.1,5.3-3.1,9.1-3.1c3.8,0,6.9,1.1,9.1,3.1c2.2,2.1,3.4,4.9,3.4,8.5v9.1h7.7c7.5,0,11.2,3,11.2,9.1c0,6.2-3.7,9.2-11.2,9.2
		h-7.7v26.9c0,1.8,0.5,3.3,1.6,4.5c1.1,1.2,2.4,1.9,4.1,2l4.1,0.3C374.2,95.9,377.3,98.7,377.3,104z M408.8,101.9V53.7
		c0-3.8-1.2-6.7-3.6-8.6c-2.4-1.9-5.3-2.9-8.9-2.9c-3.5,0-6.5,1-8.9,2.9c-2.4,1.9-3.6,4.8-3.6,8.6v48.2c0,3.8,1.2,6.7,3.6,8.6
		c2.4,1.9,5.3,2.9,8.9,2.9c3.5,0,6.5-1,8.9-2.9C407.6,108.6,408.8,105.7,408.8,101.9z M386.3,29.1c2.5,2.2,5.8,3.3,10,3.3
		c4.2,0,7.5-1.1,10-3.3c2.5-2.2,3.7-5.1,3.7-8.8c0-3.6-1.3-6.5-3.8-8.7c-2.5-2.1-5.8-3.2-9.9-3.2c-4.2,0-7.5,1.1-10,3.2
		c-2.5,2.1-3.7,5-3.7,8.7C382.6,24,383.8,26.9,386.3,29.1z M445.3,11.7c-2.5-2.1-5.8-3.2-9.9-3.2c-4.2,0-7.5,1.1-10,3.2
		c-2.5,2.1-3.7,5-3.7,8.7c0,3.6,1.2,6.6,3.7,8.8c2.5,2.2,5.8,3.3,10,3.3s7.5-1.1,10-3.3c2.5-2.2,3.7-5.1,3.7-8.8
		C449.1,16.8,447.9,13.9,445.3,11.7z M444.6,45.1c-2.4-1.9-5.3-2.9-8.9-2.9c-3.5,0-6.5,1-8.9,2.9c-2.4,1.9-3.6,4.8-3.6,8.6v59.8
		c0,1.9-0.5,3.4-1.6,4.6c-1.1,1.2-2.5,1.9-4.3,2l-3.9,0.3c-3.2,0.2-5.5,1-7.1,2.3c-1.5,1.4-2.3,3.4-2.3,6.1c0,3.4,1.3,5.8,3.9,7.3
		c2.6,1.5,6.2,2.2,10.6,1.9l3.9-0.3c8.6-0.7,15-3.2,19.2-7.7c4.2-4.5,6.4-10.6,6.4-18.5V53.7C448.1,49.9,446.9,47,444.6,45.1z
		 M532.7,45.4c2.2,2.1,3.4,4.9,3.4,8.3v50.4c0,11.4-3.4,20-10.3,25.9s-16.9,8.8-30.2,8.8c-5.1,0-10-0.5-14.6-1.4
		c-4.6-0.9-8.4-2.3-11.6-4.1c-1.7-0.9-3-2.1-4-3.6c-1-1.5-1.5-3.2-1.5-5c0-2.7,0.7-4.9,2-6.6c1.4-1.7,3.1-2.5,5.2-2.5
		c1.7,0,4.7,0.7,9.1,2.1c2.9,0.9,5.5,1.7,7.7,2.2c2.2,0.5,4.5,0.8,6.9,0.8c5.7,0,9.9-1.2,12.5-3.6s4-6.1,4-11.3v-5.3
		c-2.1,3.1-5,5.5-8.8,7.3c-3.8,1.8-8,2.7-12.5,2.7c-6,0-11.3-1.4-16-4.2c-4.7-2.8-8.3-6.8-10.9-12c-2.6-5.2-3.9-11.2-3.9-18
		c0-6.8,1.3-12.8,3.9-18.1c2.6-5.2,6.3-9.3,10.9-12.1c4.7-2.8,10-4.3,16-4.3c4.6,0,8.8,0.9,12.6,2.8c3.8,1.9,6.8,4.4,8.8,7.7
		c0.2-3.2,1.4-5.7,3.6-7.5c2.2-1.8,5.1-2.7,8.6-2.7C527.5,42.2,530.5,43.3,532.7,45.4z M511.6,76.4c0-4.9-1.2-8.8-3.6-11.6
		c-2.4-2.8-5.8-4.2-10.2-4.2c-4.3,0-7.7,1.4-10.1,4.1c-2.4,2.8-3.6,6.6-3.6,11.7c0,4.9,1.2,8.7,3.7,11.4c2.5,2.8,5.8,4.1,10,4.1
		c4.4,0,7.8-1.4,10.2-4.1C510.3,85.2,511.6,81.3,511.6,76.4z M608.4,82.8h-37c0.7,4.5,2.1,7.7,4.3,9.7s5.6,2.9,9.9,2.9
		c2.3,0,4.5-0.3,6.4-0.8c2-0.5,4.2-1.2,6.6-2.2c1.4-0.6,2.8-1,4.1-1.5c1.4-0.4,2.6-0.6,3.7-0.6c2.1,0,3.9,0.8,5.2,2.5
		c1.4,1.7,2,3.9,2,6.6c0,3.7-1.8,6.6-5.5,8.5c-3.2,1.6-6.9,2.9-11.3,4s-8.3,1.6-12,1.6c-7.7,0-14.3-1.4-20-4.3
		c-5.7-2.9-10.1-7-13.2-12.5c-3.1-5.4-4.6-11.8-4.6-19c0-6.9,1.5-13.1,4.4-18.5s7-9.7,12.3-12.7c5.3-3,11.2-4.6,17.8-4.6
		c6.4,0,12.1,1.4,16.9,4.2c4.9,2.8,8.6,6.8,11.3,11.9c2.7,5.1,4,11.2,4,18.1c0,2.1-0.5,3.8-1.5,5C611.7,82.2,610.3,82.8,608.4,82.8z
		 M593.3,71.1c-0.6-8.2-4.1-12.3-10.6-12.3c-3.3,0-5.9,1-7.8,3.1c-2,2.1-3.1,5.2-3.5,9.2H593.3z M676.7,44.4
		c-1.9-1.7-4.4-2.5-7.6-2.2l-2,0.1c-3.7,0.2-7.3,1.4-10.7,3.6c-3.4,2.2-5.9,5.4-7.3,9.5v-2.7c0-3.4-1.1-6-3.2-7.8
		c-2.1-1.9-4.9-2.8-8.3-2.8c-3.4,0-6.2,1-8.6,2.9c-2.4,2-3.6,4.7-3.6,8.3v48.4c0,3.8,1.2,6.7,3.6,8.6c2.4,1.9,5.3,2.9,8.9,2.9
		c3.5,0,6.5-1,8.9-2.9c2.4-1.9,3.6-4.8,3.6-8.6V77.9c0-4.1,1-7.4,3-9.7c2-2.4,5.3-3.9,10-4.4l4.2-0.4c4.5-0.5,7.6-1.5,9.3-3.2
		c1.7-1.7,2.6-4.4,2.6-8.1C679.5,48.7,678.6,46.1,676.7,44.4z M736.2,77.3c-3.7-3.2-10.1-5.6-19.2-7.2c-5.4-1-9-2-10.8-2.8
		c-1.8-0.8-2.7-2-2.7-3.5c0-1.3,0.7-2.3,2-3c1.3-0.7,3.1-1,5.5-1c2.3,0,4.4,0.3,6.1,0.8c1.7,0.5,3.7,1.3,6,2.3
		c3.4,1.6,6.3,2.4,8.7,2.4c2.1,0,3.8-0.9,5.2-2.7c1.4-1.8,2.1-4,2.1-6.6c0-3.7-1.4-6.4-4.3-8.1c-3.1-1.9-6.6-3.3-10.6-4.3
		c-4-1-8-1.5-12.2-1.5c-5.8,0-11,1-15.7,2.9c-4.7,2-8.3,4.7-11,8.1c-2.7,3.5-4,7.3-4,11.6c0,5.9,1.8,10.4,5.5,13.6
		c3.7,3.2,9.7,5.6,18,7.2c4.7,0.9,8,1.7,9.9,2.2c2,0.5,3.3,1.1,4,1.6c0.7,0.6,1.1,1.4,1.1,2.4c0,1.3-0.7,2.3-2.2,3
		c-1.4,0.7-3.4,1.1-6,1.1c-3.5,0-6.5-0.3-8.8-0.8c-2.3-0.6-4.9-1.4-7.9-2.4c-1.8-0.7-3.3-1.3-4.5-1.6c-1.2-0.3-2.5-0.5-3.9-0.5
		c-2.1,0-3.8,0.8-5.1,2.5c-1.4,1.6-2,3.7-2,6.2c0,2,0.4,3.7,1.1,5.3c0.7,1.6,1.8,2.7,3.1,3.4c3.3,2.1,7,3.5,11.3,4.5
		c4.3,0.9,9.6,1.4,15.8,1.4c9.5,0,17.1-2,22.8-6.1c5.6-4.1,8.5-9.5,8.5-16.3C741.8,85.2,740,80.5,736.2,77.3z"/>
</g>
<g id="Tijgerprint">
</g>
<g id="IJ">
	<g>
		<defs>
			<path id="SVGID_1_" d="M408.8,101.9V53.7c0-3.8-1.2-6.7-3.6-8.6c-2.4-1.9-5.3-2.9-8.9-2.9c-3.5,0-6.5,1-8.9,2.9
				c-2.4,1.9-3.6,4.8-3.6,8.6v48.2c0,3.8,1.2,6.7,3.6,8.6c2.4,1.9,5.3,2.9,8.9,2.9c3.5,0,6.5-1,8.9-2.9
				C407.6,108.6,408.8,105.7,408.8,101.9z M386.3,29.1c2.5,2.2,5.8,3.3,10,3.3c4.2,0,7.5-1.1,10-3.3c2.5-2.2,3.7-5.1,3.7-8.8
				c0-3.6-1.3-6.5-3.8-8.7c-2.5-2.1-5.8-3.2-9.9-3.2c-4.2,0-7.5,1.1-10,3.2c-2.5,2.1-3.7,5-3.7,8.7C382.6,24,383.8,26.9,386.3,29.1z
				 M445.3,11.7c-2.5-2.1-5.8-3.2-9.9-3.2c-4.2,0-7.5,1.1-10,3.2c-2.5,2.1-3.7,5-3.7,8.7c0,3.6,1.2,6.6,3.7,8.8
				c2.5,2.2,5.8,3.3,10,3.3s7.5-1.1,10-3.3c2.5-2.2,3.7-5.1,3.7-8.8C449.1,16.8,447.9,13.9,445.3,11.7z M444.6,45.1
				c-2.4-1.9-5.3-2.9-8.9-2.9c-3.5,0-6.5,1-8.9,2.9c-2.4,1.9-3.6,4.8-3.6,8.6v59.8c0,1.9-0.5,3.4-1.6,4.6c-1.1,1.2-2.5,1.9-4.3,2
				l-3.9,0.3c-3.2,0.2-5.5,1-7.1,2.3c-1.5,1.4-2.3,3.4-2.3,6.1c0,3.4,1.3,5.8,3.9,7.3c2.6,1.5,6.2,2.2,10.6,1.9l3.9-0.3
				c8.6-0.7,15-3.2,19.2-7.7c4.2-4.5,6.4-10.6,6.4-18.5V53.7C448.1,49.9,446.9,47,444.6,45.1z"/>
		</defs>
		<clipPath id="SVGID_2_">
			<use xlink:href="#SVGID_1_"  style="overflow:visible;"/>
		</clipPath>
		<path class="st5" d="M320.4,250.2c9.3-9.4,18.7-16.6,30.3-23c18.3-10,32.1-24.1,41.8-42.5c9-16.9,15.2-34.5,27.1-49.8
			c14.2-18.2,33.6-32.7,54.3-42.6c-13.1,9.9-23.1,23.3-34.3,35.4c-11.9,12.8-13.8,26.8-17.7,43.2c-6.4,26.7-35,35.9-48.6,57.5
			c20.9-7.4,44.5-9.9,61.9-25.2c8.8-7.7,16.2-18.4,22.4-28.2c4.8-7.4,10.7-13.8,15.8-20.9c2.8-4,5.3-10.8,8.9-13.7
			c-1.9,6.8-4.9,13.8-7.2,20.7c-2.3,7.2-6.1,13.9-6.3,21.6c-0.4,14,2.9,27.3-1.1,41.3c-5.4,18.8-22.8,31.4-35.9,44.6
			c-15.4,15.6-32.8,28.8-48.9,43.3c5.6-9.8,15-18.7,22-27.6c9.8-12.3,19.1-24.9,30-36.3c8.2-8.6,13.5-15.3,16-27.2
			c1.6-8.1,7.6-18.8,6.1-26.8c-6.1,28.6-35.3,47.6-62.6,51.5c-7.5,1.1-15.3,1.3-22.8,2.7c-8.7,1.6-17.5,4.9-25.7,8.1
			c-9.5,3.8-17.8,9.7-27.3,13.3c-3,1.1-6.1,2.3-8.8,4.1c-2,1.3-4.2,4.5-6.5,4.2C303.9,266.2,312.9,257.8,320.4,250.2z M596.3-37.4
			c-10.2,6.7-17.4,16.3-22.6,27.2C569-0.3,564.9,9.1,563,20c-1.9,10.7-3,21-6.7,31.3c-2.7,7.3-3.8,14.9-6.6,22.2
			c-3.2,8.2-8,15.3-12,23.1c-3.5,6.9-8,12.2-12.9,18.1c-2.4,2.9-5.2,8-8.5,9.9c7.6,0,16.6-8.9,22.6-13.1
			c9.2-6.4,19.3-12.8,26.6-21.5c13.2-15.5,27.3-27.1,46.4-34.9c17.7-7.2,36.8-19.8,44.5-38.2c4.2-9.9,5.8-20.5,7.8-31.1
			c1-5.5,4.4-14.7,2.8-20.2c-1.3,5.7-6.5,11.3-9.1,16.5c-3.8,7.5-7.2,15.9-12.3,22.6c-7.3,9.7-19.4,16.2-29.1,23.2
			c-9.1,6.4-18.9,12.4-27.6,19.6c-8.2,6.7-17.7,14.8-24.2,23.2c3.4-5.4,8.5-9.2,11.5-15c3.3-6.4,5.5-12.7,6.8-19.8
			c2.2-11.8,3.2-23.9,6.6-35.4c4.6-15.5,12.7-43,31.8-45.5c-5-1-11.1-0.7-15.9,1.3C602-42.4,599.5-39.6,596.3-37.4z M469.8-51.5
			c2.8-2.4,6.1-4,8.7-6.7c-8.8-4.6-20.1,2.1-27.1,7.7c-8,6.5-14.1,15.2-19.7,23.8c-9.5,14.8-18.5,30.1-31.4,42.3
			c-9.7,9.1-22.5,14.3-34.4,19.8c-11.2,5.2-21.1,12-31.9,17.9c1.1-4.9,7.1-9.3,10.1-13.2c4.2-5.4,8.4-10.3,13.2-15.3
			c5.5-5.7,9.8-12.2,15.3-17.8c5.1-5.2,10.2-10,13.9-16.3c2.4-4.2,4.5-8.5,7.1-12.7c3.4-5.5,7.6-10.1,10.4-16
			c4.9-10.2,14.2-19.2,17.6-30C406-62,392.3-50.7,377.9-42.5c-9.4,5.4-19.6,9.5-28.8,15.3c-3.9,2.5-8.2,4.2-12.1,6.6
			c-2.6,1.6-4.4,4.2-6.7,6.1c-5.2,4.5-12,6.7-16.3,12.3c1-5.9,5.1-11.1,8.1-16.3c3.8-6.8,7.9-13.4,12.8-19.5
			c5.8-7.2,9.3-16,14.3-23.8c3.9-6.1,9.9-10.8,13.6-16.8c-13.2,4.7-23.1,20.3-29.8,31.8c-5.4,9.2-12.7,15.3-21.1,21.6
			c-12.5,9.3-23.8,20.5-33.8,32.3c4.8,1.4,9.6,0.8,14.5,0.3c6.3-0.7,12.1-0.6,18.3-0.7c9.8-0.1,22.4-6.4,30.3-12.1
			c8.5-6.1,16.6-10.9,26-15.6c6.8-3.4,16.2-7.7,20.3-14.1c-13,11.9-25.5,22.8-33.2,39c-5.7,12-12.3,22.3-20.8,32.5
			c-8.6,10.3-18,20.3-26.9,30.5c-9.8,11.2-22.3,19.2-31.2,31.3c7.2-4.7,15.3-8.2,22.3-13c6.6-4.5,14.2-5.4,22.1-5
			c8.2,0.5,11.9-2.8,18.3-7.5c12.5-9.2,26.7-16.1,40.7-22.7c20.4-9.6,43.3-12.6,57.7-31.6c6.6-8.7,8.2-19.7,11.7-29.8
			c3.8-10.9,6.8-21.9,13.7-31.3C464-45.8,466.8-48.9,469.8-51.5z M514.2,296.8c-1.3,2.9-1.8,5.1-3.8,7.8c-2,2.7-4.3,5.2-4.6,8.8
			c-0.4,4.9-0.7,9,0.5,13.8c1.8,7.2,3.8,14.5,6.9,21.1c4.1-9.7,5.8-21.3,11.6-30.2c7.9-12.2,16.4-23.8,26.6-34.3
			c10.7-11,24.2-19.2,36.2-28.6c4.4-3.5,7.9-8.2,12.2-11.9c-2.9,4.9-5.3,9.9-8.6,14.6c-3.7,5.3-5.6,11.2-9.4,16.3
			c-4.1,5.5-7.9,11.7-9.7,18.4c2.2-2.8,5.9-4.3,8.7-6.5c7.1-5.7,13.3-12.1,21.1-17.1c8.4-5.4,17.2-10.5,26.1-15.1
			c8.4-4.3,15-11.5,23.1-16.4c2.7-1.6,5.4-3.2,7.9-5.1c2.5-1.8,6.2-5.3,9.3-5.3c-4.1,2.9-7.5,7.5-11.1,11.1c-2.2,2.2-5,3.2-7,5.6
			c-3,3.6-6.2,6.9-9.5,10.3c-7.7,7.7-16.9,14.4-25.8,20.7c-13.1,9.4-25.9,20.4-37,32.3c-6.1,6.5-12.8,12.7-16.8,20.9
			c-2.3,4.7-6.2,10.9-6.5,16.2c4.7-3.4,13.5-4,19.2-5.3c6.7-1.5,13.2-2.3,19.8-4.2c16.5-4.8,35-11.1,50-20.1
			c8-4.8,15.4-10.5,22.9-16c6.9-5.1,14.5-8.9,21.3-14c8.6-6.4,16.1-11.7,23.5-19.6c7.4-8,20.7-16.3,24.5-27
			c-8.3,4.1-15.8,11.8-23.3,17.4c-6.6,4.8-13,9.9-19.7,14.6c-10.8,7.7-22.6,14.9-34.7,20.4c-13.5,6.1-27.1,12.4-39.9,19.7
			c-8.1,4.6-16.2,9-24.7,12.7c-4.8,2-11,5.9-15.8,6.7c3.9-4.6,8-9.8,12.6-13.8c6.6-5.7,12.1-11.3,18.1-17.5
			c7.3-7.6,14.1-15.3,22.5-21.8c6.5-5,13.6-9.5,19.4-15.3c6.9-6.9,13.2-14.8,20.6-21.1c8.1-6.9,17.6-12.4,26.6-18.3
			c6.6-4.3,12.2-9.1,18.4-14c8.4-6.6,16.7-12.1,23.4-20.6c6.3-8,13.2-15.5,19-23.8c3.2-4.7,8-11,9-16.6
			c-11.9,11.1-24.9,19-38.5,27.6c-13.2,8.3-24.5,19.5-37.2,28.5c-7.4,5.3-15.5,8.7-24,11.8c-8.9,3.2-17.3,7.4-26,11.1
			c-14.6,6.2-25,17-36.3,27.5c10.1-10.7,18.2-23.6,28.4-34.3c7-7.3,14.7-13.1,21-21.2c7.1-8.9,15.6-16.9,23.1-25.4
			c7.3-8.3,16.7-14.5,25-21.7c7.7-6.7,16.8-11.6,24-18.9c3.7-3.7,7.7-7.6,10.7-12c2.6-3.9,4.1-8.6,6.5-12.6
			c5.4-8.9,14.5-16.4,18.7-26c-5.1,9-17.1,16.2-25.5,22c-10.5,7.4-21.1,14.1-31.2,22.1c-22.6,17.9-46.8,34.5-67.4,54.7
			c-9.4,9.2-18.2,19.7-24.9,31c-8.2,13.8-21.5,26.7-35.7,34.3c-8.5,4.6-17.6,6.7-26.3,10.7c-9.4,4.3-15.7,11.5-21.7,19.6
			C524.9,282,517.7,289,514.2,296.8z M275.2,129.6c-2,1.8-3.7,4.1-5.1,6.4c-1.4,2.3-2.2,4.8-3.2,7.3c-1.1,2.6-2.6,4.8-2.9,7.6
			c2.5-2.2,4.4-4.9,7.3-6.6c4.1-2.4,7.9-5.2,12.1-7.5c8.3-4.5,17.1-7.1,26.1-9.8c9.3-2.8,15.9-8.9,24.3-12.7
			c-8.9,7.7-17.8,14.4-27.1,21.5c-7.6,5.8-16.3,11.9-22.3,19.6c-6.3,8-10.6,17.5-16.6,25.8c-5.5,7.6-10.2,17.5-12.3,26.6
			c5.1-3.4,9.8-10.7,14.2-15.1c5.7-5.7,9.3-10.6,16.6-14.7c8.8-4.9,19.7-6.9,29.2-10.5c6-2.3,10.8-5,16.4-8.4c5-3,11-8.4,16.3-9.8
			c-9.8,4.8-19.7,15.3-27.4,23c-8.8,8.7-16.8,18-25.2,27.2c-4.7,5.2-9,9.1-11.7,15.7c-3.2,7.5-6.8,14.6-10.5,22
			c-3.5,7-4.1,13.8-6.1,21.3c-1,3.8-5.2,9.8-4,13.3c4.7-18.3,24.1-30.2,35.1-44.7c9.1-12,20.9-23.2,32.1-33.2
			c11.2-9.9,23.3-19.5,33.1-30.8c6.1-7,11.2-14.9,16.9-22.1c6.6-8.4,17-15.2,21.2-25.2c-9,3.9-17.7,9.7-26.7,14.2
			c-8.4,4.2-17.3,6.2-26.1,8.9c-8.6,2.6-17.6,3.6-25.8,7.4c-9,4.1-16.5,8.4-24.7,14.1c9-9.3,18.9-18.2,29.3-26.1
			c13.4-10.3,27.6-21.9,42.5-29.9c17.5-9.3,37.3-16.8,53.8-27.9c10.4-7.1,16-17.7,24-27.2c7-8.3,14.6-17.5,19.7-26.9
			c-17.1,11.6-32.8,26.4-50.7,36.8c-19.8,11.5-40.8,20.5-61,31.2c-16.1,8.6-32.4,17.5-49.6,23.9
			C295.8,118.2,283.6,122.3,275.2,129.6z M677.9,27.8c-9.7,10.7-17.9,22.7-28.7,32.5c-8.8,8-18.1,14.6-27.9,21.3
			c-8.4,5.7-17.8,9.7-26.1,15.4c6.3,1.4,15.6-0.5,22.1-1.4c9-1.2,17.5-2.9,26-5.9c4.7-1.7,10-4.4,14.4-6.9
			c8.2-4.7,16.3-11.2,25.4-14c-2.2,3.5-6.4,6-9.3,9c-2,2-3.5,4.5-5.5,6.5c-4.6,4.7-10.8,8.7-16.6,11.8c-9.1,4.8-19.2,9.1-27.5,15.3
			c-8.6,6.3-13.9,14.9-23.1,20.1c-13.5,7.5-25.5,12.2-35,24.8c-10.1,13.3-23.1,27.6-36.5,37.6c-11.6,8.6-23,20.8-32.5,31.2
			c5.9-3.7,12.2-7.5,18.6-10.5c8-3.7,14.5-8.4,22-12.9c6.3-3.8,12.9-6.4,18.9-10.7c7.1-5.1,13.1-11.4,20.6-16.1
			c12.2-7.6,24.8-14,37.3-21c9.2-5.2,16.9-12.4,24.7-19.4c3.7-3.3,7.7-6.4,11.4-9.8c3.1-2.8,5.1-6.5,8.1-9.3
			c2.6-2.5,6.2-3.9,9.3-5.7c7.4-4.1,15.4-6.8,23-10.7c10.1-5.1,21-9.5,30.1-16.1c9.6-6.9,19.2-13.5,28.8-20.5
			c4.7-3.4,9.4-6.9,13.9-10.4c5.5-4.3,9.9-9.7,15.5-13.8c-4.2-0.3-9.2,3.7-12.9,5.4c-6.6,3-13.4,5.6-20.2,8
			c-11.4,4.1-21.6,8.9-31.8,15.3c-10.2,6.4-19.7,14.2-29.7,20.9c-7.4,4.9-18,7.6-24.3,13.5c6.4-5.3,13.4-9.9,19.8-15.2
			c6.3-5.2,12.4-10.4,18.4-15.9C710,59.5,721.9,49,734,39c-7.3,1.3-14.7,5-21.8,7.7c-7.7,3-15.5,5.1-23.3,7.7
			c-14.1,4.7-29.1,10.7-39.8,21.2c9.4-9.2,20-17.7,30.5-25.5c5.6-4.2,11.9-7.2,16.8-12.3c5.1-5.3,9.2-11.2,12.8-17.6
			c5.8-10.3,8.3-20.4,10.5-32c2.2-11.8,8-18.5,14.6-28.1c-0.4,0.6-5.4,1.8-6.5,2.6c-2.1,1.7-3.8,4-5.3,6.2c-3.3,4.8-5.9,9.3-10.6,13
			c-6.7,5.2-15.4,12.7-18,21C690.7,12.8,684.9,20,677.9,27.8z M600.5,105.2c-17.5,4.1-33.6,12.1-49.1,21.1
			c-12,6.9-20.8,15.3-30,25.4c-14.6,15.8-25.4,35-38.2,52c19.9-19.3,46-32,62.4-54.8c6.9-9.6,17.2-17.8,26.5-25
			C581,116.8,591.7,111.7,600.5,105.2z M531.1-21.9c-3.7,3.7-7,7.8-9.9,12.3c-4,6.3-9.1,11.9-13.3,18c4-8.6,6.8-18,10.9-26.6
			c4.4-9.3,6.3-19.5,11.1-28.4c-9.9,9.1-19.9,14.7-25.8,27.4c-5.5,11.8-8.5,23.6-10.9,36.3c-1.2,6.1-2.2,12.3-3.8,18.3
			c-2.3,8.3-5.6,12.3-12.2,17.5c-8,6.3-15.7,13-23,20.2c-4.5,4.5-8.9,9.2-13.2,13.9c-3.4,3.6-10.7,8.3-12.2,13.1
			c17.1-13.1,37.6-21.3,54.1-35.2c7.1-5.9,14.1-11.4,18.4-19.6c4.5-8.6,8.8-18.8,15-26.3c5.4-6.5,9.5-14.2,15.3-20.4
			c-1.2,5.6-1.8,11.5-3.2,17.1c-1.2,4.7-4.1,9.7-6.1,14.1c-4.9,10.6-11.4,21.1-13.6,32.7c-2.1,10.5-10.9,17.9-15.5,27.6
			c-3.8,7.9-7.9,14.4-12.8,21.7c-3.1,4.6-6.7,9.3-8.9,14.4c7.9-8.7,16.8-17.7,25-26.6c6-6.5,11.4-13.3,16.8-20.4
			c5.8-7.7,12.4-14.6,17.2-23.1c9-16,13.8-33.4,17.1-51.2c0.7-3.7,1.3-7.4,2.6-10.9c2.4-7.2,4.1-14.2,4.3-21.7
			c0.1-2.8,0.7-5.6,0.6-8.4c-0.1-2.4-2.9-9-1.6-11C547.4-38,538.7-29.4,531.1-21.9z M438.4,298.8c-1.4,4.3-2,8.2-1.2,12.6
			c9.3-8.4,18.9-16,30-21.9c7.1-3.8,13.6-9,20.7-13.1c6.2-3.7,13.3-7.1,18.8-11.8c9.6-8.1,19.5-16.8,28.3-25.7
			c9.7-9.9,20.5-18.9,30.2-28.6c-10.3,5.1-19.5,14.2-29.5,20.3c-5.2,3.2-9.9,7.3-15.1,10.5c-6.7,4.2-14.3,7.7-21.5,11.1
			c-12.1,5.7-23.5,12.9-35,19.8C454.2,277.7,442,287.5,438.4,298.8z M617.9,163.5c-5.5,4-10.8,8.3-16.5,12c-3.7,2.4-8.1,3.7-11.2,7
			c-5.1,5.6-6.8,12.8-9.8,19.5c-3.2,7.2-7.1,13.6-11,20.4c-2,3.5-3.9,7.1-6.2,10.4c-2.2,3.1-5.5,5.6-7.5,8.8
			c10.5-3.2,18.8-13.1,24.8-21.6c6.2-8.7,11.5-18,17.4-26.8c5.5-8.2,14.5-13.7,20.7-21.4c3.3-4.1,5.3-8.7,8.4-12.9
			c2.2-2.9,6.5-6.1,7.8-9.4C632.9,154.7,622.3,160.4,617.9,163.5z M356.9,267.4c-6.5,0.8-13.5,2.4-15.6,9.7c-1,3.5-2.2,10,3.2,9.2
			c2.3-0.3,5.8-2.6,8.2-3.5c3.4-1.3,6.1-3.3,9.4-4.8c5.4-2.5,10.2-5.2,15.4-8c4.6-2.4,10-3.4,14.6-5.8c7.2-3.9,14.4-10.9,22.3-13.3
			c-4.9,0.4-10.1,4.1-14.9,5.3c-4.7,1.3-9.3,2.8-14,3.7C375.7,261.9,366.7,266.3,356.9,267.4z M751.2,208.7c-1-5-7.8-6.1-11.6-4.5
			c-5.1,2-9.2,6.3-13.2,9.9c-5.9,5.4-12.5,9.6-19,14.2c-9.1,6.5-15.1,15.4-24.6,21.3c-7.4,4.6-13,10.5-19.4,16.3
			c-4.9,4.4-9.7,10.6-15.4,13.9c15.6-8,28.8-19.8,44-28.5c6-3.4,11.7-7.1,17.6-10.6c6.6-3.9,13.8-6.2,20.6-9.7
			C736.5,227.6,753,218.3,751.2,208.7z M721.8,156.2c8.2-5.5,35.4-12.3,33.8-25.3c-1.3-9.7-7-1.6-10.7,1.5
			c-6.9,5.8-15.2,9.6-22.1,15.5c-5.9,5-12.2,9.6-17.7,15c-4.4,4.2-8.1,9.2-12.7,13.2C701.4,168.8,712,162.8,721.8,156.2z
			 M635.3,343.3c1,11.1,18.8-2.3,22.7-5.3c10.5-8.1,22.7-13.5,32.8-22.2c7.5-6.5,15.8-12,23.4-18.4c5.4-4.6,9.9-10.3,16.3-13.5
			c-6.5,2.1-13.3,6.4-19.5,9.8c-9,4.9-17.9,9.6-27,14.4c-9.1,4.7-17.7,6.8-26,13C650.8,326.5,634.3,332.1,635.3,343.3z M486.5-18.5
			c3.1-6.2,16.5-21.3,12.3-28.5c-5.3-8.9-16.6,5.9-17.7,11.2c-1.6,7.7-5.8,14.8-9.3,22c-4.7,9.8-11.3,17.2-16.8,26.2
			C468.3,6.6,479.9-5.3,486.5-18.5z M644.5-30.1c-2.7-10.4-15.3,6.9-17.7,9.6c-5.1,5.8-9.2,11.4-13.7,17.8
			C609,3,602.7,8.8,599.8,15.1c7-4.3,13.9-7.7,20.3-13c6.4-5.3,10.9-10.7,16-17.2C638.7-18.1,645.7-25.6,644.5-30.1z M739.1,21.6
			c7.7-2.8,39.7-10.9,29.8-24.5c-10.2-14-29.4,11.7-35.7,18.7c-6.1,6.8-11.8,13.3-19,18.7c2.9-2.1,6.8-3.4,10.1-4.9
			C729.3,27.2,733.7,23.5,739.1,21.6z M344.3,203.5c-3.2,1.9-6.5,3.6-9.6,5.6c-7.1,4.7-13.8,14-14.7,22.6c5.4-3,10.1-8.8,15.2-12.5
			c3.6-2.6,7.3-4.8,10.8-7.6c6.4-5,13.5-8.8,19.7-14.1c4.6-3.9,6.6-8.8,9.3-14.2c3-6,8.9-18.1,7-24.6c0.3,1.2-12.1,13.2-13.5,14.9
			c-3.8,4.6-8,9.2-10.9,14.5c-2.1,3.7-3.5,7.3-6.6,10.3C349,200.5,346.7,202.1,344.3,203.5z M283.3,31.9c-4.6,0.3-7.4,0.4-11.1,3.6
			c-5.6,4.8-17.9,17.5-9.4,24.6c6.4,5.4,15.8-1.1,21.1-4.9c9.1-6.4,16.5-14.3,25.7-20.6c4.8-3.4,8.2-7.7,12.5-11.6
			c2.8-2.6,9.5-5.9,10-9.9c-2.9,3.4-9.3,5.7-13.3,7.7c-5.6,2.7-11.5,5.9-17.5,7.7C295.6,30,289.3,31.4,283.3,31.9z M377.8-57.2
			c1.8-1.5,6.3-3.6,6.5-6.3c0.4-4.5-5.7-3.2-8.2-2.5c-8.2,2.2-12.7,8.8-18.2,14.7c-5,5.3-9.6,10-13.7,16c6.9-2,12.4-7,18.1-11.2
			C367.3-50.2,372.9-53.3,377.8-57.2z M425.2-33.9c3.9-4.8,13.4-14.2,11-21.2c-3-8.6-10.9-0.6-13,3.9c-2.5,5.5-5.3,11-8.8,16
			c-4.2,6.1-9.1,11.5-12.9,17.9c-2.1,3.6-4.6,7.1-6.9,10.6c-3.6,5.3-7,11.1-10.8,15.9c5.2-6.4,14.1-9,19.7-15.2
			c2.3-2.5,4.1-5.4,6-8.2c0.8-1.2,1.4-2.7,2.3-3.9c2.4-2.8,5.1-4.1,6.8-7.5C420.1-28.8,422.8-31,425.2-33.9z"/>
	</g>
</g>
</svg>
