<?xml version="1.0" encoding="utf-8"?>
<!-- Generator: Adobe Illustrator 25.0.1, SVG Export Plug-In . SVG Version: 6.00 Build 0)  -->
<svg version="1.1" id="Tijgerpatroon" xmlns="http://www.w3.org/2000/svg" xmlns:xlink="http://www.w3.org/1999/xlink" x="0px"
	 y="0px" viewBox="0 0 425.2 334.9" style="enable-background:new 0 0 425.2 334.9;" xml:space="preserve">
<style type="text/css">
	.st0{opacity:5.000000e-02;}
	.st1{fill:#FFFFFF;}
</style>
<g class="st0">
	<path class="st1" d="M86.3,281.5c5.8-8.5,12-15.4,19.9-21.9c12.6-10.3,21.1-23.1,25.9-38.5c4.5-14.3,6.7-28.6,13.6-42.1
		c8.2-15.9,21-29.9,35.4-40.4c-8.6,9.4-14.3,21.2-21.1,32c-7.2,11.5-6.7,22.5-7.3,35.6c-1,21.3-21.6,32.5-29,51
		c14.9-8.7,32.7-14,43.8-28.2c5.6-7.2,9.7-16.4,13.1-24.8c2.6-6.4,6.2-12.1,9.1-18.3c1.6-3.4,2.5-9,4.9-11.8
		c-0.5,5.5-1.8,11.3-2.5,16.8c-0.7,5.9-2.7,11.5-1.7,17.5c1.7,10.8,6.1,20.5,5.1,31.7c-1.4,15.2-13,27.3-21.1,39.3
		c-9.6,14.1-21,26.8-31.2,40.2c2.8-8.3,8.8-16.5,12.9-24.3c5.7-10.8,11-21.8,17.7-32.1c5-7.7,8.2-13.7,8.3-23.2
		c0.1-6.4,3.2-15.5,0.8-21.4c-0.6,22.8-20.2,41.5-40.5,48.4c-5.6,1.9-11.5,3.2-17.1,5.3c-6.4,2.5-12.7,6.2-18.5,9.9
		c-6.7,4.2-12.2,10-19,14.1c-2.1,1.3-4.3,2.7-6.2,4.4c-1.3,1.3-2.6,4.1-4.4,4.2C76,296.2,81.6,288.4,86.3,281.5z"/>
	<path class="st1" d="M256.1,21.7c-6.8,6.6-11,15-13.4,24.1c-2.2,8.3-3.9,16.1-3.8,24.7c0.1,8.5,0.7,16.5-0.7,24.9
		c-1,5.9-0.8,12-1.9,17.9c-1.3,6.7-3.9,12.9-5.9,19.4c-1.7,5.8-4.4,10.5-7.3,15.7c-1.4,2.6-2.9,6.9-5.1,8.8
		c5.8-1.1,11.4-9.2,15.4-13.3c6.1-6.3,12.9-12.6,17.3-20.3c7.9-13.8,17-24.7,30.5-33.4c12.5-8.1,25.3-20.5,28.6-35.7
		c1.8-8.2,1.5-16.5,1.5-24.9c0-4.4,1.2-11.9-0.8-15.9c-0.2,4.5-3.3,9.5-4.6,13.9c-1.8,6.3-3.2,13.2-6.1,19.1
		c-4.2,8.4-12.5,15.2-19,21.9c-6,6.2-12.7,12.2-18.3,18.9c-5.3,6.3-11.5,13.9-15.2,21.2c1.8-4.6,5.2-8.3,6.7-13.2
		c1.6-5.4,2.4-10.5,2.4-16.1c0-9.3-1-18.7,0-28c1.3-12.5,3.6-34.8,17.8-39.4c-4-0.1-8.6,1.1-12,3.3C259.8,17,258.3,19.6,256.1,21.7z
		"/>
	<path class="st1" d="M157.3,29.1c1.8-2.2,4.1-3.9,5.7-6.4c-7.4-2.2-15.1,4.5-19.6,9.8c-5.2,6.2-8.6,13.7-11.6,21.1
		c-5.1,12.7-9.8,25.7-18,36.9c-6.1,8.4-15.1,14.2-23.5,20.1c-7.8,5.6-14.4,12.2-21.8,18.3c0.2-3.9,4.1-8.2,5.9-11.5
		c2.5-4.7,5-9.1,7.9-13.6c3.4-5.1,5.7-10.8,9.1-15.8c3.1-4.7,6.4-9.1,8.3-14.5c1.3-3.6,2.2-7.2,3.6-10.7c1.8-4.7,4.3-8.9,5.6-13.8
		c2.3-8.5,8.1-16.7,9.2-25.5c-11.1,6.7-20,17.3-29.8,25.7C81.8,54.7,74.6,59.3,68.4,65c-2.7,2.4-5.7,4.4-8.3,6.8
		c-1.7,1.6-2.8,3.8-4.3,5.6c-3.3,4.2-8.2,6.9-10.7,11.8c-0.1-4.7,2.3-9.2,3.8-13.6c1.9-5.7,4.1-11.4,7-16.8
		c3.4-6.4,4.9-13.6,7.5-20.3c2.1-5.2,6-9.7,8-14.9C62,29.3,56.7,42.6,53.1,52.4c-2.8,7.8-7.6,13.6-13.1,19.5
		c-8.2,8.9-15.3,19.2-21.2,29.6c3.8,0.3,7.5-0.7,11.1-1.8c4.7-1.4,9.1-2.2,13.9-3.1c7.5-1.4,16.2-8.1,21.4-13.6
		C71,77.1,76.5,72.2,83,67.3c4.7-3.6,11.3-8.2,13.5-13.7c-8.2,11-16.3,21.1-19.8,34.6C74,98.2,70.5,107,65.4,116
		c-5.1,9.1-10.9,18.1-16.2,27.2c-5.9,10-14.3,17.9-19.4,28.5c4.9-4.6,10.5-8.4,15.2-13.1c4.4-4.4,10.1-6.2,16.2-7
		c6.4-0.8,8.7-3.8,12.9-8.4c8.3-8.9,18.1-16.1,27.9-23.2c14.2-10.3,31.3-15.9,39.6-32.5c3.8-7.6,3.4-16.2,4.7-24.5
		c1.4-8.9,2.1-17.7,6-25.9C153.7,34.3,155.4,31.5,157.3,29.1z"/>
	<path class="st1" d="M250.3,270.6c3.5-7.1,7.3-13.5,13.8-18.2c6.1-4.3,12.8-7.3,18.6-12c9.8-7.9,18.1-19.7,22.4-31.4
		c3.5-9.6,8.7-18.9,14.6-27.3c12.9-18.4,29.1-34.6,43.8-51.5c6.6-7.6,13.7-14.2,20.7-21.4c5.5-5.6,13.7-12.9,16.3-20.5
		c-1.8,7.9-7.7,14.9-10.5,22.6c-1.3,3.4-1.7,7.2-3.2,10.5c-1.6,3.7-4.2,7.3-6.4,10.7c-4.5,6.6-10.7,11.7-15.6,17.9
		c-5.3,6.7-11.6,12.8-16,20.2c-4.5,7.6-9.9,14.9-14,22.8c-3.7,7.1-8.8,12.6-13.1,19.2c-6.3,9.7-10.6,20.7-16.8,30.3
		c7.2-9.7,13.5-19.4,23.8-26.2c6.1-4.1,12-8.5,18.3-12.2c6.1-3.6,11.8-7.4,16.7-12.5c8.4-8.7,15.5-19,24.4-27.2
		c9.2-8.5,18-16.4,25.5-26.6c0.1,4.5-2.7,10-4.5,14c-3.2,7.2-7.4,14-11.1,21c-3.9,7.4-9.5,12.8-14.9,19.1c-4,4.6-7.6,9.1-12.1,13.3
		c-6,5.8-12.5,11.4-17.7,17.8c-4.8,5.9-8.5,12.8-12.8,19.1c-3.6,5.3-8.4,9.7-12.7,14.5c-5.5,6.2-9.6,13-14.1,19.9
		c-3.7,5.7-7.1,10.7-11.4,16c-3,3.7-5.4,8.3-7.7,12.3c3.6-1.3,7.8-5.2,11.1-7.4c6-4,11.5-8.6,17.1-13.3c8.8-7.4,18.3-14.2,27.8-20.8
		c8.5-5.9,16.5-13.1,23.6-20.6c4.4-4.6,8.6-9.4,13-14c5-5.3,9.5-12.3,15.3-16.7c-1.4,8.8-10.3,17-14.9,24.2
		c-4.5,7.1-9.5,12.2-15.2,18.4c-4.5,4.9-9.7,8.9-14.3,13.8c-4.9,5.3-9.9,10.7-15.3,15.6c-10.1,9.1-23.4,16.6-35.4,22.6
		c-4.8,2.4-9.7,4-14.6,6.1c-4.2,1.8-10.8,3.5-14,6.8c-0.5-4.1,1.6-9.4,2.7-13.3c1.9-6.8,6.1-12.5,9.8-18.4c6.8-10.7,14.9-21,23.6-30
		c5.9-6.1,12-12.6,16.8-19.5c2.1-3,4-6,5.8-9.2c1.2-2.1,3.2-3.3,4.5-5.3c2.2-3.3,4.2-7.3,6.9-10.1c-2.3,0.4-4.7,3.6-6.3,5.3
		c-1.7,1.8-3.5,3.4-5.3,5c-5.5,4.9-9.5,11.4-15.3,15.9c-6.2,4.8-12.1,10-17.8,15.3c-5.2,4.9-9,10.7-13.7,16.1
		c-1.8,2.1-4.4,3.8-5.7,6.3c0.4-5.4,2.4-10.6,4.8-15.4c2.2-4.5,2.8-9.3,4.9-13.8c1.9-4,3-8.2,4.5-12.4c-2.8,3.4-4.7,7.6-7.6,10.9
		c-7.8,8.9-17,17.2-23.6,27.1c-6.3,9.5-11.1,19.6-15.4,30.1c-3.2,7.6-2.8,16.8-4.6,24.8c-3.3-4.6-5.9-9.9-8.3-15.1
		c-1.6-3.5-2-6.7-2.4-10.5c-0.3-2.7,1.1-5,2.2-7.4c1.1-2.4,1.2-4.1,1.8-6.6C242.9,282.9,247.4,276.5,250.3,270.6z"/>
	<path class="st1" d="M55.8,179.6c12.2-7.4,23.4-16.5,34.5-25.4c13.9-11.1,28.7-21,42.2-32.7c12.2-10.5,22.1-24.2,33.5-35.5
		c-2.6,7.9-7.1,16.1-11.2,23.4c-4.8,8.4-7.5,17.3-14.5,24.3c-11,10.9-25,19.5-37.1,29.1C92.9,171,83.8,182,75,191.8
		c-6.8,7.5-13.1,15.7-18.7,24.2c5.4-5.5,10.6-9.9,16.9-14.4c5.7-4.1,12.5-6.1,18.7-9.4c6.4-3.3,12.9-6.1,18.7-10.6
		c6.2-4.7,12-10.4,18.4-14.7c-1.7,8.3-8.8,15-12.6,22.4c-3.3,6.3-6.1,13.1-9.7,19.3c-5.9,10.1-13.8,19.2-20.9,28.4
		c-7.2,9.3-14.5,19.5-19.8,30c-6.4,12.7-19.5,24.6-20.5,39.2c-1.4-2.5,0.9-7.7,1.2-10.8c0.5-6,0-11.3,1.6-17.2
		c1.7-6.1,3.5-12.1,4.8-18.3c1.2-5.4,3.9-9,6.7-13.7c5.1-8.3,9.8-16.5,15.4-24.4c4.8-7,10.9-16.5,17.7-21.6c-3.9,1.9-7.6,6.8-11,9.8
		c-3.8,3.4-7,6.2-11.3,8.8c-6.8,4.1-14.8,7.3-20.8,12.2c-5,4.2-7,8.4-10.6,13.6c-2.7,4-5.3,10.3-8.7,13.6c0.3-7.3,2.5-15.5,5.6-22.1
		c3.4-7.2,5.3-15,9-22.1c3.5-6.7,9.3-12.7,14.3-18.2c6.1-6.8,11.9-13.2,17.7-20.3c-5.9,4.1-10.1,9.8-16.8,13.2
		c-6.5,3.4-12.9,6.6-18.6,11.2c-2.9,2.3-5.4,5-8.2,7.5c-2,1.7-3,4.1-4.6,6.1c-0.2-2.2,0.7-4.1,1.1-6.2c0.4-2,0.7-4.1,1.4-6
		c0.7-2,1.7-4,3-5.6C39.8,188.9,48.5,184,55.8,179.6z"/>
	<path class="st1" d="M328,59.9c-5.9,9.6-10.5,20-17.3,29c-5.6,7.4-11.8,13.8-18.3,20.3c-5.6,5.6-12.2,9.9-17.8,15.6
		c5,0.2,11.9-2.7,16.7-4.2c6.7-2.2,13-4.7,19.1-8.3c3.3-1.9,7-4.8,10-7.4c5.6-4.7,10.9-10.9,17.5-14.3c-1.2,3-4,5.5-5.8,8.2
		c-1.3,1.9-2,3.9-3.3,5.8c-2.9,4.3-7,8.2-11,11.5c-6.3,5-13.4,9.8-18.9,15.6c-5.7,6.1-8.5,13.4-14.8,18.7c-9.2,7.7-17.8,13-23.2,24
		c-5.8,11.6-13.7,24.4-22.5,34c-7.6,8.3-14.6,19.2-20.4,28.5c4-3.7,8.3-7.5,12.7-10.7c5.6-4,9.9-8.5,15-13c4.3-3.8,9-6.7,12.9-10.9
		c4.7-5,8.4-10.6,13.4-15.3c8.2-7.6,17-14.3,25.5-21.5c6.3-5.3,11.1-12,16.1-18.4c2.4-3.1,5-6,7.3-9.1c2-2.6,3-5.7,4.9-8.3
		c1.7-2.3,4.2-3.9,6.3-5.7c5.1-4.2,10.8-7.4,16-11.5c7-5.4,14.7-10.3,20.7-16.7c6.3-6.7,12.8-13.1,19.1-19.8c3.1-3.3,6.2-6.6,9.1-10
		c3.6-4.1,6.2-8.8,9.9-12.8c-3.2,0.4-6.5,4.2-9.1,6c-4.7,3.2-9.4,6.2-14.3,9.1c-8.1,4.8-15.2,9.9-22.1,16.3
		c-6.9,6.4-13,13.7-19.8,20.3c-4.9,4.8-12.7,8.4-16.6,13.9c4.1-5,8.8-9.5,12.9-14.5c4.1-4.9,8-9.8,11.8-14.9
		c7.3-9.8,14.9-19.6,22.7-29c-5.4,2-10.6,5.9-15.5,9c-5.4,3.4-11.1,6.1-16.7,9.2c-10.1,5.6-20.8,12.3-27.4,21.9
		c5.9-8.4,12.8-16.4,19.7-23.9c3.7-4,8.1-7.2,11.1-11.8c3.1-4.8,5.4-9.9,7.2-15.3c2.9-8.7,3.4-16.8,3.4-26c0-9.4,3.5-15.3,7.1-23.6
		c-0.2,0.5-3.8,2.1-4.6,3c-1.4,1.6-2.3,3.6-3.2,5.5c-1.9,4.1-3.2,8-6.3,11.4c-4.4,5-9.9,11.9-10.8,18.6
		C335.6,46.6,332.2,52.9,328,59.9z"/>
	<path class="st1" d="M279.9,130.2c-12.8,5.7-23.9,14.1-34.6,23.2c-8.2,7-13.7,14.7-19.3,23.7c-8.9,14.2-14.4,30.4-21.8,45.3
		c12.5-17.6,30.7-31.1,39.9-50.9c3.9-8.3,10.6-16.1,16.7-23C266.6,142,274.1,136.5,279.9,130.2z"/>
	<path class="st1" d="M221.7,20.4c-0.7,1.7,2.4,6.4,2.8,8.2c0.5,2.1,0.4,4.4,0.8,6.5c0.9,5.8,0.7,11.4-0.1,17.2
		c-0.4,2.9-0.4,5.8-0.4,8.7c0,14.1-1.2,28.1-5.7,41.7c-2.4,7.2-6.5,13.4-9.8,20.1c-3.1,6.2-6.3,12.2-9.9,18
		c-5,8-10.5,16.1-15.3,23.9c0.9-4.2,3-8.3,4.8-12.3c2.8-6.3,5-11.9,6.7-18.5c2.1-8.1,7.8-15,7.9-23.4c0.1-9.2,3.5-18.1,5.7-27
		c0.9-3.7,2.4-7.9,2.7-11.6c0.3-4.5-0.1-9,0-13.5c-3.6,5.6-5.6,12.1-8.8,17.8c-3.7,6.6-5.5,15.1-7.7,22.3
		c-2.1,6.9-6.7,12.1-11.3,17.7c-10.6,13-25.2,22.3-36.4,34.7c0.4-3.9,5.4-8.6,7.5-11.8c2.7-4.2,5.3-8.4,8.1-12.5
		c4.5-6.5,9.4-12.8,14.7-18.8c4.4-5,6.3-8.5,6.9-15.2c0.4-4.8,0.3-9.7,0.3-14.6c0-10.1,0.7-19.6,3.1-29.4
		c2.7-10.6,9.5-16.3,15.8-24.7c-2.4,7.5-2.4,15.6-4.4,23.4c-1.9,7.2-2.7,14.8-4.5,21.9c2.4-5.3,5.4-10.2,7.6-15.7
		c1.5-3.8,3.4-7.5,5.8-10.8C213.2,36.1,218.6,28.2,221.7,20.4z"/>
	<path class="st1" d="M199.3,277.4c7.8-6.9,15.5-14.1,23.9-20.2c5-3.6,10.3-7.4,14.8-11.6c3.5-3.2,6.5-7,10.1-10.2
		c6.8-6.1,12.5-14.4,19.7-19.8c-6,8.9-13,17.3-19,26.3c-5.4,8.1-11.8,16.2-17.9,23.8c-3.5,4.4-8.5,8-12.7,11.7
		c-4.8,4.2-9,9.1-13.9,13c-7.7,6.1-13.9,13.3-19.8,21.1c-1.2-3.2-1.3-6.3-0.9-9.8C184.7,292.6,192.7,283.3,199.3,277.4z"/>
	<path class="st1" d="M312.5,159.3c-0.5,2.7-3.3,5.7-4.6,8.3c-1.8,3.6-2.7,7.5-4.6,11.1c-3.6,6.8-9.7,12.3-12.7,19.4
		c-3.2,7.6-6,15.5-9.5,23c-3.4,7.3-8.3,16.1-15.9,20.1c1.1-2.7,3.2-5.1,4.5-7.8c1.3-2.8,2.2-5.9,3.2-8.8c2-5.8,4.1-11.2,5.5-17.2
		c1.3-5.6,1.6-11.3,4.7-16.3c1.9-3,5-4.6,7.5-7c3.8-3.6,7.3-7.7,10.9-11.5C304.4,169.4,311.8,163.5,312.5,159.3z"/>
	<path class="st1" d="M137.4,279.7c3.5-1.4,6.8-3.2,10.2-4.9c3.5-1.7,7-5.3,10.7-6.2c-5.7,3-10.2,9.4-15.2,13.4
		c-3.1,2.5-7.1,4-10.3,6.5c-3.6,2.8-6.9,5.6-10.7,8.3c-2.3,1.6-4,3.6-6.5,5.1c-1.6,1-4.1,3.3-5.7,3.8c-4.1,1.3-4.1-3.7-3.8-6.6
		c0.6-5.9,5.7-8.2,10.6-9.7C124.1,287.2,130.3,282.5,137.4,279.7z"/>
	<path class="st1" d="M410.1,187.9c-1.5-3.7-6.9-3.5-9.6-1.8c-3.6,2.3-6.1,6.1-8.7,9.5c-3.8,5-8.2,9.1-12.5,13.6
		c-6,6.2-9.4,14-15.8,19.9c-5,4.6-8.5,9.9-12.5,15.2c-3.1,4.1-5.9,9.5-9.8,12.9c10.8-8.4,19.2-19.3,29.6-28.1c4.1-3.5,8-7.1,12-10.6
		c4.5-4,9.7-6.8,14.4-10.4C401.6,204.4,412.9,194.9,410.1,187.9z"/>
	<path class="st1" d="M380,151.9c5.5-5.4,25.4-14.5,22.2-24.2c-2.4-7.3-5.6-0.2-8,2.7c-4.5,5.4-10.2,9.6-14.7,15
		c-3.8,4.7-7.9,9.1-11.4,14c-2.7,3.8-4.9,8.2-7.8,11.9C366.3,164.4,373.5,158.4,380,151.9z"/>
	<path class="st1" d="M354.8,287.3c5.5-5.9,11.8-8.8,18-13.7c6.3-4.9,12.4-9.8,18.6-14.9c4.3-3.5,8.9-7.7,13.5-10.3
		c-4.5,3.4-7.1,8.4-10.6,12.7c-4.9,6-10.5,11.4-15.3,17.4c-6.4,8.1-15.1,14-21.9,21.7c-2.5,2.9-14.2,15.7-16.6,7.4
		C338.3,299.1,350.1,292.4,354.8,287.3z"/>
	<path class="st1" d="M174.8,52c1.5-5.2,9.6-18.7,5.3-23.6c-5.3-6-11.9,6.9-12,11.1c-0.1,6.2-2.3,12.2-3.9,18.2
		c-2.2,8.2-6.2,14.8-9.1,22.5C164.5,73.8,171.7,63,174.8,52z"/>
	<path class="st1" d="M294.1,20.3c-3.5-7.6-10.7,7.5-12.2,9.9c-3.1,5.2-5.4,10.1-8,15.6c-2.3,5-6.3,10.4-7.6,15.6
		c4.8-4.3,9.6-7.9,13.7-12.9c4.1-5,6.8-9.8,9.8-15.4C291.4,30.4,295.7,23.6,294.1,20.3z"/>
	<path class="st1" d="M373.9,46.3c5.5-3.3,28.8-14,19.3-23c-9.8-9.2-20.8,13.2-24.6,19.5c-3.7,6.1-7.1,11.9-11.9,17.1
		c1.9-2,4.7-3.5,7-5.2C367.3,52.1,370.1,48.6,373.9,46.3z"/>
	<path class="st1" d="M97.9,242.4c-2.1,1.9-4.5,3.7-6.5,5.7c-4.8,4.7-8.6,12.7-8,19.4c3.7-3,6.5-8.2,9.8-11.8
		c2.4-2.5,4.9-4.8,7.2-7.4c4.2-4.7,9.1-8.7,13-13.6c2.9-3.7,3.8-7.7,5.1-12.2c1.4-5,4.2-15.1,1.8-19.9c0.4,0.8-7.3,11.8-8.2,13.4
		c-2.2,4.1-4.8,8.2-6.3,12.7c-1,3.1-1.7,6.1-3.6,8.9C101,239.4,99.5,240.9,97.9,242.4z"/>
	<path class="st1" d="M39.8,114.4c4.3-2.2,8.4-5.5,12.3-8.4c2.8-2.1,7.4-4.8,9.1-7.8c0.2,3.1-4.5,6.7-6.2,9
		c-2.7,3.6-4.7,7.4-7.9,10.7c-6.1,6.2-10.7,13.3-16.7,19.5c-3.5,3.7-9.7,9.9-15.5,6.8c-7.5-4.2,0-15.7,3.7-20.2c2.4-3,4.5-3.4,8-4.4
		C31,118.5,35.7,116.5,39.8,114.4z"/>
	<path class="st1" d="M86,38c1.2-1.4,4.3-3.7,4-5.8c-0.4-3.5-4.8-1.6-6.6-0.7c-6,2.9-8.4,8.6-11.8,13.9c-3.1,4.8-5.9,9-8.2,14.2
		c5-2.5,8.5-7.2,12.3-11.2C79,44.8,82.8,41.7,86,38z"/>
	<path class="st1" d="M125.7,49c2.3-4.3,8.2-12.8,5.4-17.8c-3.5-6.2-8.5,1.1-9.3,4.9c-1.1,4.6-2.5,9.2-4.4,13.5
		c-2.4,5.3-5.3,10.1-7.3,15.6c-1.1,3.1-2.5,6.1-3.8,9.1c-2,4.6-3.7,9.5-6,13.7c3.1-5.6,9.5-8.9,12.9-14.5c1.4-2.2,2.4-4.7,3.4-7.1
		c0.4-1.1,0.7-2.3,1.2-3.3c1.4-2.5,3.3-3.9,4.1-6.7C122.5,53.6,124.3,51.5,125.7,49z"/>
</g>
</svg>
